<?xml version="1.0" encoding="UTF-8" standalone="no"?>
<!-- Created with Inkscape (http://www.inkscape.org/) -->

<svg
   xmlns:dc="http://purl.org/dc/elements/1.1/"
   xmlns:cc="http://creativecommons.org/ns#"
   xmlns:rdf="http://www.w3.org/1999/02/22-rdf-syntax-ns#"
   xmlns:svg="http://www.w3.org/2000/svg"
   xmlns="http://www.w3.org/2000/svg"
   xmlns:sodipodi="http://sodipodi.sourceforge.net/DTD/sodipodi-0.dtd"
   xmlns:inkscape="http://www.inkscape.org/namespaces/inkscape"
   id="svg3374"
   version="1.1"
   inkscape:version="0.91 r13725"
   xml:space="preserve"
   width="160"
   height="160"
   viewBox="0 0 160 160"
   sodipodi:docname="YoutubePlaylistInfo.ai.svg"
   inkscape:export-filename="/home/imuser/Downloads/YouTubePlayListStats.ai.png"
   inkscape:export-xdpi="9"
   inkscape:export-ydpi="9"><metadata
     id="metadata3380"><rdf:RDF><cc:Work
         rdf:about=""><dc:format>image/svg+xml</dc:format><dc:type
           rdf:resource="http://purl.org/dc/dcmitype/StillImage" /><dc:title></dc:title></cc:Work></rdf:RDF></metadata><defs
     id="defs3378"><clipPath
       clipPathUnits="userSpaceOnUse"
       id="clipPath3388"><path
         d="M 0,128 128,128 128,0 0,0 0,128 Z"
         id="path3390"
         inkscape:connector-curvature="0" /></clipPath></defs><sodipodi:namedview
     pagecolor="#ffffff"
     bordercolor="#666666"
     borderopacity="1"
     objecttolerance="10"
     gridtolerance="10"
     guidetolerance="10"
     inkscape:pageopacity="0"
     inkscape:pageshadow="2"
     inkscape:window-width="1920"
     inkscape:window-height="1047"
     id="namedview3376"
     showgrid="false"
     inkscape:zoom="2.8401248"
     inkscape:cx="126.79406"
     inkscape:cy="67.347589"
     inkscape:window-x="1920"
     inkscape:window-y="0"
     inkscape:window-maximized="1"
     inkscape:current-layer="g3382" /><g
     id="g3382"
     inkscape:groupmode="layer"
     inkscape:label="YouTubePlayListStats"
     transform="matrix(1.25,0,0,-1.25,0,160)"><g
       id="g3384"><g
         id="g3386"
         clip-path="url(#clipPath3388)"><g
           id="g3392"
           transform="translate(76.4089,121.5947)"><path
             d="m 0,0 -47.082,0 c -5.86,0 -10.614,-4.761 -10.614,-10.633 l 0,-93.924 c 0,-5.871 4.754,-10.632 10.614,-10.632 l 69.347,0 c 5.86,0 10.613,4.761 10.613,10.632 l 0,71.889 L 0,0 Z"
             style="fill:#ffffff;fill-opacity:1;fill-rule:nonzero;stroke:none"
             id="path3394"
             inkscape:connector-curvature="0" /></g><g
           id="g3396"
           transform="translate(76.4089,121.5947)"><path
             d="m 0,0 -47.082,0 c -5.86,0 -10.614,-4.761 -10.614,-10.633 l 0,-93.924 c 0,-5.871 4.754,-10.632 10.614,-10.632 l 69.347,0 c 5.86,0 10.613,4.761 10.613,10.632 l 0,71.889 L 0,0 Z"
             style="fill:none;stroke:#464747;stroke-width:6;stroke-linecap:round;stroke-linejoin:round;stroke-miterlimit:10;stroke-dasharray:none;stroke-opacity:1"
             id="path3398"
             inkscape:connector-curvature="0" /></g><g
           id="g3400"
           transform="translate(87.1566,88.6586)"><path
             d="m 0,0 c -5.861,0 -10.613,4.762 -10.613,10.633 l 0,22.303 L 21.994,0 0,0 Z"
             style="fill:#ffffff;fill-opacity:1;fill-rule:nonzero;stroke:none"
             id="path3402"
             inkscape:connector-curvature="0" /></g><g
           id="g3404"
           transform="translate(87.1566,88.6586)"><path
             d="m 0,0 c -5.861,0 -10.613,4.762 -10.613,10.633 l 0,22.303 L 21.994,0 0,0 Z"
             style="fill:none;stroke:#464747;stroke-width:6;stroke-linecap:round;stroke-linejoin:round;stroke-miterlimit:10;stroke-dasharray:none;stroke-opacity:1"
             id="path3406"
             inkscape:connector-curvature="0" /></g><g
           id="g3408"
           transform="translate(33.6073,83.1472)"><path
             d="M 0,0 46.158,0"
             style="fill:none;stroke:#7f7f7f;stroke-width:6;stroke-linecap:round;stroke-linejoin:round;stroke-miterlimit:10;stroke-dasharray:none;stroke-opacity:1"
             id="path3410"
             inkscape:connector-curvature="0" /></g><g
           id="g3412"
           transform="translate(33.6073,63.5586)"><path
             d="M 0,0 60.785,0"
             style="fill:none;stroke:#7f7f7f;stroke-width:6;stroke-linecap:round;stroke-linejoin:round;stroke-miterlimit:10;stroke-dasharray:none;stroke-opacity:1"
             id="path3414"
             inkscape:connector-curvature="0" /></g><g
           id="g3416"
           transform="translate(33.6073,43.9707)"><path
             d="M 0,0 60.785,0"
             style="fill:none;stroke:#7f7f7f;stroke-width:6;stroke-linecap:round;stroke-linejoin:round;stroke-miterlimit:10;stroke-dasharray:none;stroke-opacity:1"
             id="path3418"
             inkscape:connector-curvature="0" /></g><g
           id="g3420"
           transform="translate(33.6073,24.3821)"><path
             d="M 0,0 60.785,0"
             style="fill:none;stroke:#7f7f7f;stroke-width:6;stroke-linecap:round;stroke-linejoin:round;stroke-miterlimit:10;stroke-dasharray:none;stroke-opacity:1"
             id="path3422"
             inkscape:connector-curvature="0" /></g><g
           id="g3424"
           transform="translate(81.8591,72.2575)"><path
             d="m 0,0 -35.718,0 c -5.047,0 -9.137,-4.098 -9.137,-9.153 l 0,-19.139 c 0,-5.056 4.09,-9.153 9.137,-9.153 l 35.718,0 c 5.046,0 9.137,4.097 9.137,9.153 l 0,19.139 C 9.137,-4.098 5.046,0 0,0"
             style="fill:#ed3e3e;fill-opacity:1;fill-rule:nonzero;stroke:none"
             id="path3426"
             inkscape:connector-curvature="0" /></g><g
           id="g3428"
           transform="translate(66.2837,49.3737)"><path
             d="m 0,0 -8.099,-4.16 0,16.642 L 0,8.321 8.099,4.161 0,0 Z"
             style="fill:#ffffff;fill-opacity:1;fill-rule:nonzero;stroke:none"
             id="path3430"
             inkscape:connector-curvature="0" /></g></g></g></g></svg>